<?xml version="1.0" encoding="UTF-8"?>
<svg width="80px" height="31px" viewBox="0 0 80 31" version="1.1" xmlns="http://www.w3.org/2000/svg" xmlns:xlink="http://www.w3.org/1999/xlink">
    <!-- Generator: Sketch 63.1 (92452) - https://sketch.com -->
    <title>logo-beon</title>
    <desc>Created with Sketch.</desc>
    <g id="Page-1" stroke="none" stroke-width="1" fill="none" fill-rule="evenodd">
        <g id="logo-beon" fill="#FFFFFF" fill-rule="nonzero">
            <g id="beon">
                <g id="Clip-2">
                    <path d="M25.774049,9.19675551 C24.5064265,7.86681405 22.7166472,7.06516667 20.5862386,7.06516667 L20.5862386,7.06516667 C17.7427037,7.06516667 15.4678286,8.4923634 14.2464731,10.7006706 L14.2464731,10.7006706 C13.1813868,8.51526088 11.1659376,7.06516667 8.40148168,7.06516667 L8.40148168,7.06516667 C6.34141789,7.06516667 4.83844709,7.95604332 4.08684365,8.95810256 L4.08684365,8.95810256 L4.08684365,1.10828458 L0.133843952,1.10828458 L0.133843952,21.9855806 L3.78067856,21.9855806 L3.78067856,20.2040633 C4.69917384,21.5401423 6.34141789,22.3196004 8.40148168,22.3196004 L8.40148168,22.3196004 C11.1616887,22.3196004 13.1752493,20.8737552 14.241752,18.6937748 L14.241752,18.6937748 C15.4678286,20.9308809 17.760408,22.3196004 20.6140932,22.3196004 L20.6140932,22.3196004 C22.6524398,22.3196004 24.4325408,21.5720099 25.7145628,20.3301174 L25.7145628,20.3301174 C27.8910025,25.7339195 33.179373,29.5497705 39.3621609,29.5497705 L39.3621609,29.5497705 C45.7399315,29.5497705 51.1678113,25.4905453 53.2080464,19.8155145 L53.2080464,19.8155145 L53.2080464,22.3382488 L57.4181115,22.3382488 L57.4181115,13.4429372 C57.4181115,11.3675298 58.5450444,10.0628463 60.5907088,10.0628463 L60.5907088,10.0628463 C62.4590949,10.0628463 63.2295828,11.3082796 63.2295828,13.1167074 L63.2295828,13.1167074 L63.2295828,22.3382488 L67.44012,22.3382488 L67.44012,12.6424702 C67.44012,8.93614931 65.4534697,6.44575479 61.7176418,6.44575479 L61.7176418,6.44575479 C59.4047617,6.44575479 57.8035915,7.36472219 57.0921176,8.6989127 L57.0921176,8.6989127 L57.0921176,6.80125566 L53.2080464,6.80125566 L53.2080464,9.8621984 C51.1678113,4.18693154 45.7399315,0.127706487 39.3621609,0.127706487 L39.3621609,0.127706487 C33.2364986,0.127706487 27.9873134,3.87250448 25.774049,9.19675551 M30.3785643,14.8387384 C30.3785643,9.87730599 34.4004924,5.85537786 39.3621609,5.85537786 L39.3621609,5.85537786 C44.3233573,5.85537786 48.3455216,9.87730599 48.3455216,14.8387384 L48.3455216,14.8387384 C48.3455216,19.8001709 44.3233573,23.8223351 39.3621609,23.8223351 L39.3621609,23.8223351 C34.4004924,23.8223351 30.3785643,19.8001709 30.3785643,14.8387384 M20.5583839,10.2384722 C22.3956105,10.2384722 23.5926523,11.35195 23.8709627,12.9941941 L23.8709627,12.9941941 L17.2460411,12.9941941 C17.5798249,11.3238594 18.7487759,10.2384722 20.5583839,10.2384722 M3.97542505,14.6923835 C3.97542505,12.3263907 5.36721332,10.5446373 7.56631431,10.5446373 L7.56631431,10.5446373 C9.76541534,10.5446373 11.1572036,12.3263907 11.1572036,14.6923835 L11.1572036,14.6923835 C11.1572036,17.0586124 9.76541534,18.8403657 7.56631431,18.8403657 L7.56631431,18.8403657 C5.36721332,18.8403657 3.97542505,17.0586124 3.97542505,14.6923835 M17.1900958,15.8339521 L24.6884259,15.8339521 C24.7221819,16.3424174 24.7819042,16.843565 24.8664123,17.3366868 L24.8664123,17.3366868 L23.5367069,17.3366868 C23.06365,18.3946914 21.9223175,18.9234576 20.7255118,18.9234576 L20.7255118,18.9234576 C18.7487759,18.9234576 17.4686423,17.8378345 17.1900958,15.8339521" id="path-1"></path>
                </g>
            </g>
            <g id="claro" transform="translate(57.361694, 22.897467)">
                <path d="M16.250143,3.65769321 C16.832258,3.65769321 17.3454444,3.86542279 17.7698738,4.28938 C18.1848609,4.71404539 18.3921183,5.22770401 18.3921183,5.81973335 C18.3921183,6.41223479 18.1848609,6.92565737 17.7698738,7.34040837 C17.3454444,7.76483771 16.832258,7.9815374 16.250143,7.9815374 C15.667792,7.9815374 15.1635756,7.76483771 14.7495327,7.34040837 C14.3248674,6.92565737 14.1173738,6.41223479 14.1173738,5.81973335 C14.1173738,5.22770401 14.3248674,4.71404539 14.7495327,4.28938 C15.1635756,3.86542279 15.667792,3.65769321 16.250143,3.65769321 Z M6.82202863,2.60134102 L6.82202863,7.95226646 L5.79589165,7.95226646 L5.79589165,2.60134102 L6.82202863,2.60134102 Z M9.25064718,3.64877027 C9.69514131,3.63838379 10.0895915,3.72666887 10.4450924,3.91456972 C10.7504635,4.07594644 10.9251256,4.37642081 10.9543586,4.80056318 L10.958751,4.9315005 L10.958751,7.95207758 L9.93166978,7.95207758 L9.93166978,7.52764828 C9.61629854,7.80454238 9.17180441,7.9423993 8.60904601,7.95207758 C8.26345951,7.9423993 7.97759532,7.84396379 7.76962964,7.6659773 C7.53333723,7.44904151 7.415073,7.15255473 7.4242792,6.78761161 C7.415073,6.26380256 7.60250174,5.89885943 7.98703758,5.67153717 C8.17647274,5.56452496 8.4132832,5.48521658 8.69897147,5.432929 L8.87626185,5.40479349 L9.66539824,5.27685094 C9.823792,5.20815855 9.90287095,5.09957262 9.90287095,4.96100754 C9.89272047,4.79340753 9.84291262,4.67467119 9.72441233,4.6156571 C9.60638416,4.54625653 9.43831204,4.506363 9.22114014,4.51674949 C8.96454689,4.506363 8.78656039,4.57576357 8.67821058,4.7140926 C8.62287891,4.77754455 8.57404363,4.86592404 8.54669128,4.98974599 L8.53043926,5.0894222 L7.50335808,5.0894222 C7.53333723,4.7140926 7.62185836,4.41807793 7.7996088,4.19122777 C8.07603083,3.82534043 8.55971028,3.63838379 9.25064718,3.64877027 Z M14.0188439,3.66765478 L14.0287583,4.71385654 L13.7129149,4.69473598 C13.5153357,4.69473598 13.327907,4.75351401 13.1499205,4.87248641 C12.9924709,4.98060022 12.8642923,5.10901488 12.7944196,5.26693658 C12.718342,5.39380001 12.6786846,5.58621966 12.6689065,5.84954706 L12.666477,5.98714452 L12.666477,7.95207758 L11.6495463,7.95207758 L11.6495463,3.84516916 L12.6268196,3.85531958 L12.6268196,4.37865652 C12.8048735,4.13302302 13.0115433,3.9604032 13.2408827,3.84756688 L13.357414,3.79606944 L13.7523363,3.68748351 L14.0188439,3.66765478 Z M2.73535021,2.6012702 C3.32785166,2.59182795 3.87078128,2.7797288 4.34407426,3.15482235 C4.75701551,3.47879658 5.04461957,3.88949967 5.21434701,4.3788079 L5.2724839,4.56596724 L4.19653904,4.56596724 C4.05821002,4.28954524 3.86063085,4.05301678 3.61418802,3.88494466 C3.33752997,3.70766633 3.05119362,3.61890914 2.73535021,3.61890914 C2.28141385,3.61890914 1.89640593,3.78580098 1.58056253,4.10164439 C1.25504082,4.42787427 1.09688306,4.81288218 1.10656137,5.2670546 C1.09688306,5.72122703 1.25504082,6.10623494 1.58056253,6.43199271 C1.89640593,6.747364 2.28141385,6.91520007 2.73535021,6.91520007 C3.05119362,6.91520007 3.33752997,6.82691499 3.61418802,6.65837076 C3.81955704,6.51083554 3.99099297,6.3287115 4.1224851,6.11186205 L4.19653904,5.97758423 L5.2724839,5.97758423 C5.1145622,6.55025694 4.80863316,7.01457979 4.34407426,7.38967334 C3.87078128,7.75485252 3.32785166,7.93260293 2.73535021,7.93260293 C1.9955496,7.93260293 1.38298336,7.67577364 0.870032905,7.16211501 C0.345987798,6.63925019 0.0898666537,5.99717691 0.0898666537,5.2670546 C0.0898666537,4.52630977 0.345987798,3.90453733 0.870032905,3.38167251 C1.38298336,2.84842121 1.9955496,2.59182795 2.73535021,2.6012702 Z M9.88257007,5.85920197 L9.68499091,5.96802395 L9.17180441,6.0964386 C8.95510462,6.12547354 8.78656039,6.17504537 8.68788886,6.23429552 C8.52028886,6.34288144 8.44120999,6.49065271 8.44120999,6.69838231 C8.44120999,6.88604711 8.4903097,7.01469782 8.58921733,7.1029829 C8.68788886,7.18182572 8.80686127,7.22171924 8.95510462,7.22171924 C9.19139707,7.22171924 9.39889061,7.15255473 9.59599766,7.01469782 C9.76041093,6.89365993 9.85650794,6.68948593 9.87796332,6.40217584 L9.88257007,6.27395298 L9.88257007,5.85920197 Z M16.250143,4.68453834 C15.9439779,4.67462398 15.6774703,4.78297384 15.4598263,5.01053217 C15.2426545,5.22770401 15.1239181,5.49421164 15.1239181,5.81973335 C15.1239181,6.12542633 15.2426545,6.39240606 15.4598263,6.61925622 C15.6774703,6.84681454 15.9439779,6.95445624 16.250143,6.95445624 C16.5657503,6.95445624 16.832258,6.84681454 17.0494299,6.61925622 C17.2661296,6.39240606 17.3749515,6.12542633 17.385102,5.81973335 C17.3749515,5.49421164 17.2661296,5.22770401 17.0591081,5.01053217 C16.832258,4.78297384 16.5657503,4.67462398 16.250143,4.68453834 Z M21.7389017,4.84222398 L21.7389017,5.76095532 L19.0237815,5.76095532 L19.0237815,4.84222398 L21.7389017,4.84222398 Z M20.3954578,0.686263031 L21.0481536,1.33825068 L18.5695619,3.81589817 L17.9180464,3.16438263 L20.3954578,0.686263031 Z M16.8324704,0.173029307 L16.8324704,2.82866329 L15.9146833,2.82866329 L15.9146833,0.173029307 L16.8324704,0.173029307 Z" id="Combined-Shape"></path>
            </g>
        </g>
    </g>
</svg>